<mxfile host="app.diagrams.net" modified="2023-09-18T06:29:50.734Z" agent="Mozilla/5.0 (Windows NT 10.0; Win64; x64) AppleWebKit/537.36 (KHTML, like Gecko) Chrome/117.0.0.0 Safari/537.36" etag="yS2OiDbdsvdTs1WqEMcR" version="21.7.5" type="github">
  <diagram name="Page-1" id="QBAA2EXI7UjKmm6AoBsN">
    <mxGraphModel dx="1687" dy="892" grid="1" gridSize="10" guides="1" tooltips="1" connect="1" arrows="1" fold="1" page="1" pageScale="1" pageWidth="850" pageHeight="1100" math="0" shadow="0">
      <root>
        <mxCell id="0" />
        <mxCell id="1" parent="0" />
        <mxCell id="0vOsTDvxW1U39WzQ74CE-1" value="Nhánh" style="rounded=0;whiteSpace=wrap;html=1;" parent="1" vertex="1">
          <mxGeometry x="490" y="610" width="90" height="40" as="geometry" />
        </mxCell>
        <mxCell id="0vOsTDvxW1U39WzQ74CE-2" value="&lt;u&gt;Mã nhánh&lt;/u&gt;" style="ellipse;whiteSpace=wrap;html=1;" parent="1" vertex="1">
          <mxGeometry x="580" y="530" width="70" height="40" as="geometry" />
        </mxCell>
        <mxCell id="0vOsTDvxW1U39WzQ74CE-3" value="Địa chỉ" style="ellipse;whiteSpace=wrap;html=1;" parent="1" vertex="1">
          <mxGeometry x="400" y="550" width="70" height="40" as="geometry" />
        </mxCell>
        <mxCell id="0vOsTDvxW1U39WzQ74CE-4" value="Tên nhánh" style="ellipse;whiteSpace=wrap;html=1;" parent="1" vertex="1">
          <mxGeometry x="490" y="530" width="70" height="40" as="geometry" />
        </mxCell>
        <mxCell id="0vOsTDvxW1U39WzQ74CE-5" value="" style="endArrow=none;html=1;rounded=0;" parent="1" edge="1">
          <mxGeometry width="50" height="50" relative="1" as="geometry">
            <mxPoint x="560" y="610" as="sourcePoint" />
            <mxPoint x="600" y="570" as="targetPoint" />
          </mxGeometry>
        </mxCell>
        <mxCell id="0vOsTDvxW1U39WzQ74CE-6" value="" style="endArrow=none;html=1;rounded=0;entryX=1;entryY=1;entryDx=0;entryDy=0;" parent="1" target="0vOsTDvxW1U39WzQ74CE-3" edge="1">
          <mxGeometry width="50" height="50" relative="1" as="geometry">
            <mxPoint x="500" y="610" as="sourcePoint" />
            <mxPoint x="470" y="580" as="targetPoint" />
          </mxGeometry>
        </mxCell>
        <mxCell id="0vOsTDvxW1U39WzQ74CE-7" value="" style="endArrow=none;html=1;rounded=0;exitX=0.5;exitY=0;exitDx=0;exitDy=0;entryX=0.5;entryY=1;entryDx=0;entryDy=0;" parent="1" source="0vOsTDvxW1U39WzQ74CE-1" target="0vOsTDvxW1U39WzQ74CE-4" edge="1">
          <mxGeometry width="50" height="50" relative="1" as="geometry">
            <mxPoint x="490" y="620" as="sourcePoint" />
            <mxPoint x="540" y="570" as="targetPoint" />
          </mxGeometry>
        </mxCell>
        <mxCell id="0vOsTDvxW1U39WzQ74CE-8" value="Sách" style="rounded=0;whiteSpace=wrap;html=1;" parent="1" vertex="1">
          <mxGeometry x="1145" y="678" width="70" height="40" as="geometry" />
        </mxCell>
        <mxCell id="0vOsTDvxW1U39WzQ74CE-9" value="&lt;u&gt;Mã sách&lt;/u&gt;" style="ellipse;whiteSpace=wrap;html=1;" parent="1" vertex="1">
          <mxGeometry x="1205" y="628" width="70" height="30" as="geometry" />
        </mxCell>
        <mxCell id="0vOsTDvxW1U39WzQ74CE-10" value="Tên sách" style="ellipse;whiteSpace=wrap;html=1;" parent="1" vertex="1">
          <mxGeometry x="1265" y="663.75" width="60" height="30" as="geometry" />
        </mxCell>
        <mxCell id="0vOsTDvxW1U39WzQ74CE-20" value="" style="endArrow=none;html=1;rounded=0;entryX=1;entryY=0.75;entryDx=0;entryDy=0;exitX=0;exitY=0.5;exitDx=0;exitDy=0;" parent="1" target="0vOsTDvxW1U39WzQ74CE-8" edge="1">
          <mxGeometry width="50" height="50" relative="1" as="geometry">
            <mxPoint x="1265.000000000026" y="683" as="sourcePoint" />
            <mxPoint x="1215" y="678" as="targetPoint" />
            <Array as="points" />
          </mxGeometry>
        </mxCell>
        <mxCell id="0vOsTDvxW1U39WzQ74CE-21" value="" style="endArrow=none;html=1;rounded=0;exitX=0;exitY=1;exitDx=0;exitDy=0;entryX=0.75;entryY=0;entryDx=0;entryDy=0;" parent="1" source="0vOsTDvxW1U39WzQ74CE-9" target="0vOsTDvxW1U39WzQ74CE-8" edge="1">
          <mxGeometry width="50" height="50" relative="1" as="geometry">
            <mxPoint x="1265" y="638" as="sourcePoint" />
            <mxPoint x="1295" y="618" as="targetPoint" />
          </mxGeometry>
        </mxCell>
        <mxCell id="0vOsTDvxW1U39WzQ74CE-22" value="Tác giả" style="rounded=0;whiteSpace=wrap;html=1;shadow=0;" parent="1" vertex="1">
          <mxGeometry x="1075" y="885" width="70" height="40" as="geometry" />
        </mxCell>
        <mxCell id="0vOsTDvxW1U39WzQ74CE-23" value="" style="endArrow=none;html=1;rounded=0;shadow=0;exitX=1;exitY=0;exitDx=0;exitDy=0;" parent="1" source="0vOsTDvxW1U39WzQ74CE-25" edge="1">
          <mxGeometry width="50" height="50" relative="1" as="geometry">
            <mxPoint x="1075" y="955" as="sourcePoint" />
            <mxPoint x="1105" y="925" as="targetPoint" />
            <Array as="points" />
          </mxGeometry>
        </mxCell>
        <mxCell id="0vOsTDvxW1U39WzQ74CE-24" value="Tên" style="ellipse;whiteSpace=wrap;html=1;shadow=0;" parent="1" vertex="1">
          <mxGeometry x="1115" y="960" width="60" height="30" as="geometry" />
        </mxCell>
        <mxCell id="0vOsTDvxW1U39WzQ74CE-25" value="Mã tác giả" style="ellipse;whiteSpace=wrap;html=1;fontStyle=6" parent="1" vertex="1">
          <mxGeometry x="1025" y="960" width="70" height="30" as="geometry" />
        </mxCell>
        <mxCell id="0vOsTDvxW1U39WzQ74CE-60" style="edgeStyle=orthogonalEdgeStyle;rounded=0;orthogonalLoop=1;jettySize=auto;html=1;exitX=0;exitY=1;exitDx=0;exitDy=0;" parent="1" source="0vOsTDvxW1U39WzQ74CE-26" edge="1">
          <mxGeometry relative="1" as="geometry">
            <mxPoint x="1205" y="960" as="targetPoint" />
          </mxGeometry>
        </mxCell>
        <mxCell id="0vOsTDvxW1U39WzQ74CE-26" value="Ngày sinh" style="ellipse;whiteSpace=wrap;html=1;" parent="1" vertex="1">
          <mxGeometry x="1190" y="940" width="65" height="30" as="geometry" />
        </mxCell>
        <mxCell id="0vOsTDvxW1U39WzQ74CE-27" value="" style="endArrow=none;html=1;rounded=0;exitX=0.75;exitY=1;exitDx=0;exitDy=0;" parent="1" source="0vOsTDvxW1U39WzQ74CE-22" edge="1">
          <mxGeometry width="50" height="50" relative="1" as="geometry">
            <mxPoint x="1125" y="940" as="sourcePoint" />
            <mxPoint x="1135" y="960" as="targetPoint" />
            <Array as="points">
              <mxPoint x="1135" y="960" />
            </Array>
          </mxGeometry>
        </mxCell>
        <mxCell id="0vOsTDvxW1U39WzQ74CE-28" value="" style="endArrow=none;html=1;rounded=0;exitX=1;exitY=1;exitDx=0;exitDy=0;entryX=0;entryY=0;entryDx=0;entryDy=0;" parent="1" source="0vOsTDvxW1U39WzQ74CE-22" target="0vOsTDvxW1U39WzQ74CE-26" edge="1">
          <mxGeometry width="50" height="50" relative="1" as="geometry">
            <mxPoint x="1145" y="935" as="sourcePoint" />
            <mxPoint x="1195" y="885" as="targetPoint" />
          </mxGeometry>
        </mxCell>
        <mxCell id="0vOsTDvxW1U39WzQ74CE-29" value="NXB" style="rounded=0;whiteSpace=wrap;html=1;direction=east;" parent="1" vertex="1">
          <mxGeometry x="785" y="915" width="70" height="25" as="geometry" />
        </mxCell>
        <mxCell id="0vOsTDvxW1U39WzQ74CE-30" value="Tên" style="ellipse;whiteSpace=wrap;html=1;fontStyle=4;direction=east;" parent="1" vertex="1">
          <mxGeometry x="725" y="985" width="50" height="30" as="geometry" />
        </mxCell>
        <mxCell id="0vOsTDvxW1U39WzQ74CE-31" value="Địa chỉ" style="ellipse;whiteSpace=wrap;html=1;direction=east;" parent="1" vertex="1">
          <mxGeometry x="790" y="990" width="60" height="20" as="geometry" />
        </mxCell>
        <mxCell id="0vOsTDvxW1U39WzQ74CE-32" value="SĐT" style="ellipse;whiteSpace=wrap;html=1;direction=east;" parent="1" vertex="1">
          <mxGeometry x="865" y="975" width="40" height="30" as="geometry" />
        </mxCell>
        <mxCell id="0vOsTDvxW1U39WzQ74CE-34" value="" style="endArrow=none;html=1;rounded=0;entryX=0.25;entryY=1;entryDx=0;entryDy=0;exitX=0.5;exitY=0;exitDx=0;exitDy=0;" parent="1" source="0vOsTDvxW1U39WzQ74CE-31" target="0vOsTDvxW1U39WzQ74CE-29" edge="1">
          <mxGeometry width="50" height="50" relative="1" as="geometry">
            <mxPoint x="815" y="1000" as="sourcePoint" />
            <mxPoint x="865" y="965" as="targetPoint" />
          </mxGeometry>
        </mxCell>
        <mxCell id="0vOsTDvxW1U39WzQ74CE-35" value="" style="endArrow=none;html=1;rounded=0;exitX=0.5;exitY=1;exitDx=0;exitDy=0;entryX=0;entryY=0;entryDx=0;entryDy=0;" parent="1" source="0vOsTDvxW1U39WzQ74CE-29" target="0vOsTDvxW1U39WzQ74CE-32" edge="1">
          <mxGeometry width="50" height="50" relative="1" as="geometry">
            <mxPoint x="880" y="950" as="sourcePoint" />
            <mxPoint x="930" y="945" as="targetPoint" />
          </mxGeometry>
        </mxCell>
        <mxCell id="0vOsTDvxW1U39WzQ74CE-36" value="" style="endArrow=none;html=1;rounded=0;entryX=0.5;entryY=0;entryDx=0;entryDy=0;" parent="1" target="0vOsTDvxW1U39WzQ74CE-30" edge="1">
          <mxGeometry width="50" height="50" relative="1" as="geometry">
            <mxPoint x="795" y="940" as="sourcePoint" />
            <mxPoint x="900" y="895" as="targetPoint" />
            <Array as="points" />
          </mxGeometry>
        </mxCell>
        <mxCell id="0vOsTDvxW1U39WzQ74CE-39" value="Người mượn sách" style="rounded=0;whiteSpace=wrap;html=1;" parent="1" vertex="1">
          <mxGeometry x="485" y="925" width="80" height="40" as="geometry" />
        </mxCell>
        <mxCell id="0vOsTDvxW1U39WzQ74CE-41" value="Họ tên" style="ellipse;whiteSpace=wrap;html=1;" parent="1" vertex="1">
          <mxGeometry x="595" y="965" width="55" height="30" as="geometry" />
        </mxCell>
        <mxCell id="0vOsTDvxW1U39WzQ74CE-43" value="SĐT" style="ellipse;whiteSpace=wrap;html=1;" parent="1" vertex="1">
          <mxGeometry x="505" y="1005" width="40" height="30" as="geometry" />
        </mxCell>
        <mxCell id="0vOsTDvxW1U39WzQ74CE-44" value="Địa chỉ" style="ellipse;whiteSpace=wrap;html=1;" parent="1" vertex="1">
          <mxGeometry x="555" y="1015" width="60" height="30" as="geometry" />
        </mxCell>
        <mxCell id="0vOsTDvxW1U39WzQ74CE-45" value="Số thẻ" style="ellipse;whiteSpace=wrap;html=1;fontStyle=4" parent="1" vertex="1">
          <mxGeometry x="435" y="995" width="50" height="30" as="geometry" />
        </mxCell>
        <mxCell id="0vOsTDvxW1U39WzQ74CE-47" value="" style="endArrow=none;html=1;rounded=0;entryX=1;entryY=0.5;entryDx=0;entryDy=0;" parent="1" target="0vOsTDvxW1U39WzQ74CE-39" edge="1">
          <mxGeometry width="50" height="50" relative="1" as="geometry">
            <mxPoint x="595" y="975" as="sourcePoint" />
            <mxPoint x="645" y="925" as="targetPoint" />
          </mxGeometry>
        </mxCell>
        <mxCell id="0vOsTDvxW1U39WzQ74CE-48" value="" style="endArrow=none;html=1;rounded=0;entryX=0.75;entryY=1;entryDx=0;entryDy=0;exitX=0.288;exitY=0.006;exitDx=0;exitDy=0;exitPerimeter=0;" parent="1" source="0vOsTDvxW1U39WzQ74CE-44" target="0vOsTDvxW1U39WzQ74CE-39" edge="1">
          <mxGeometry width="50" height="50" relative="1" as="geometry">
            <mxPoint x="565" y="1015" as="sourcePoint" />
            <mxPoint x="615" y="965" as="targetPoint" />
          </mxGeometry>
        </mxCell>
        <mxCell id="0vOsTDvxW1U39WzQ74CE-49" value="" style="endArrow=none;html=1;rounded=0;exitX=0.5;exitY=0;exitDx=0;exitDy=0;entryX=0.5;entryY=1;entryDx=0;entryDy=0;" parent="1" source="0vOsTDvxW1U39WzQ74CE-43" target="0vOsTDvxW1U39WzQ74CE-39" edge="1">
          <mxGeometry width="50" height="50" relative="1" as="geometry">
            <mxPoint x="500" y="1015" as="sourcePoint" />
            <mxPoint x="550" y="965" as="targetPoint" />
          </mxGeometry>
        </mxCell>
        <mxCell id="0vOsTDvxW1U39WzQ74CE-50" value="" style="endArrow=none;html=1;rounded=0;exitX=1;exitY=0;exitDx=0;exitDy=0;" parent="1" source="0vOsTDvxW1U39WzQ74CE-45" edge="1">
          <mxGeometry width="50" height="50" relative="1" as="geometry">
            <mxPoint x="455" y="1015" as="sourcePoint" />
            <mxPoint x="505" y="965" as="targetPoint" />
          </mxGeometry>
        </mxCell>
        <mxCell id="0vOsTDvxW1U39WzQ74CE-53" value="Mã số bản sao" style="ellipse;whiteSpace=wrap;html=1;fontStyle=4" parent="1" vertex="1">
          <mxGeometry x="935" y="600" width="70" height="40" as="geometry" />
        </mxCell>
        <mxCell id="0vOsTDvxW1U39WzQ74CE-52" value="Bản sao" style="rounded=0;whiteSpace=wrap;html=1;shadow=0;" parent="1" vertex="1">
          <mxGeometry x="840" y="655" width="70" height="30" as="geometry" />
        </mxCell>
        <mxCell id="0vOsTDvxW1U39WzQ74CE-55" value="" style="rounded=0;whiteSpace=wrap;html=1;fillStyle=hatch;" parent="1" vertex="1">
          <mxGeometry x="835" y="650" width="80" height="40" as="geometry" />
        </mxCell>
        <mxCell id="0vOsTDvxW1U39WzQ74CE-57" value="" style="endArrow=none;html=1;rounded=0;exitX=0.75;exitY=0;exitDx=0;exitDy=0;" parent="1" source="0vOsTDvxW1U39WzQ74CE-55" edge="1">
          <mxGeometry width="50" height="50" relative="1" as="geometry">
            <mxPoint x="885" y="670" as="sourcePoint" />
            <mxPoint x="935" y="620" as="targetPoint" />
          </mxGeometry>
        </mxCell>
        <mxCell id="0vOsTDvxW1U39WzQ74CE-70" value="Lưu trữ" style="rhombus;whiteSpace=wrap;html=1;" parent="1" vertex="1">
          <mxGeometry x="685" y="595" width="70" height="50" as="geometry" />
        </mxCell>
        <mxCell id="0vOsTDvxW1U39WzQ74CE-73" value="" style="endArrow=none;html=1;rounded=0;exitX=1;exitY=0.5;exitDx=0;exitDy=0;entryX=0.125;entryY=0.677;entryDx=0;entryDy=0;entryPerimeter=0;" parent="1" source="0vOsTDvxW1U39WzQ74CE-1" target="0vOsTDvxW1U39WzQ74CE-77" edge="1">
          <mxGeometry width="50" height="50" relative="1" as="geometry">
            <mxPoint x="605" y="750" as="sourcePoint" />
            <mxPoint x="705" y="710" as="targetPoint" />
          </mxGeometry>
        </mxCell>
        <mxCell id="0vOsTDvxW1U39WzQ74CE-75" value="" style="endArrow=none;html=1;entryX=0;entryY=0.75;entryDx=0;entryDy=0;rounded=0;shape=link;" parent="1" source="0vOsTDvxW1U39WzQ74CE-77" target="0vOsTDvxW1U39WzQ74CE-55" edge="1">
          <mxGeometry width="50" height="50" relative="1" as="geometry">
            <mxPoint x="755" y="693" as="sourcePoint" />
            <mxPoint x="825" y="650" as="targetPoint" />
          </mxGeometry>
        </mxCell>
        <mxCell id="0vOsTDvxW1U39WzQ74CE-77" value="" style="rhombus;whiteSpace=wrap;html=1;fillStyle=hatch;" parent="1" vertex="1">
          <mxGeometry x="675" y="585" width="90" height="70" as="geometry" />
        </mxCell>
        <mxCell id="0vOsTDvxW1U39WzQ74CE-78" value="N" style="text;html=1;align=center;verticalAlign=middle;resizable=0;points=[];autosize=1;strokeColor=none;fillColor=none;" parent="1" vertex="1">
          <mxGeometry x="615" y="588" width="30" height="30" as="geometry" />
        </mxCell>
        <mxCell id="0vOsTDvxW1U39WzQ74CE-79" value="M" style="text;html=1;align=center;verticalAlign=middle;resizable=0;points=[];autosize=1;strokeColor=none;fillColor=none;" parent="1" vertex="1">
          <mxGeometry x="785" y="628.75" width="30" height="30" as="geometry" />
        </mxCell>
        <mxCell id="0vOsTDvxW1U39WzQ74CE-80" value="" style="endArrow=none;html=1;rounded=0;shape=link;entryX=0.104;entryY=0.372;entryDx=0;entryDy=0;entryPerimeter=0;" parent="1" target="0vOsTDvxW1U39WzQ74CE-82" edge="1">
          <mxGeometry width="50" height="50" relative="1" as="geometry">
            <mxPoint x="915" y="670" as="sourcePoint" />
            <mxPoint x="975" y="670" as="targetPoint" />
          </mxGeometry>
        </mxCell>
        <mxCell id="0vOsTDvxW1U39WzQ74CE-81" value="Có" style="rhombus;whiteSpace=wrap;html=1;" parent="1" vertex="1">
          <mxGeometry x="1005" y="658.75" width="60" height="40" as="geometry" />
        </mxCell>
        <mxCell id="0vOsTDvxW1U39WzQ74CE-82" value="" style="rhombus;whiteSpace=wrap;html=1;fillStyle=hatch;" parent="1" vertex="1">
          <mxGeometry x="995" y="650" width="80" height="57.5" as="geometry" />
        </mxCell>
        <mxCell id="0vOsTDvxW1U39WzQ74CE-84" value="" style="endArrow=none;html=1;rounded=0;entryX=0;entryY=0.5;entryDx=0;entryDy=0;exitX=1;exitY=0.5;exitDx=0;exitDy=0;" parent="1" source="0vOsTDvxW1U39WzQ74CE-82" target="0vOsTDvxW1U39WzQ74CE-8" edge="1">
          <mxGeometry width="50" height="50" relative="1" as="geometry">
            <mxPoint x="1055" y="670" as="sourcePoint" />
            <mxPoint x="1105" y="620" as="targetPoint" />
          </mxGeometry>
        </mxCell>
        <mxCell id="0vOsTDvxW1U39WzQ74CE-88" value="1" style="text;html=1;align=center;verticalAlign=middle;resizable=0;points=[];autosize=1;strokeColor=none;fillColor=none;" parent="1" vertex="1">
          <mxGeometry x="1100" y="658" width="30" height="30" as="geometry" />
        </mxCell>
        <mxCell id="0vOsTDvxW1U39WzQ74CE-89" value="N" style="text;html=1;align=center;verticalAlign=middle;resizable=0;points=[];autosize=1;strokeColor=none;fillColor=none;" parent="1" vertex="1">
          <mxGeometry x="950" y="638" width="30" height="30" as="geometry" />
        </mxCell>
        <mxCell id="0vOsTDvxW1U39WzQ74CE-90" value="Viết" style="rhombus;whiteSpace=wrap;html=1;" parent="1" vertex="1">
          <mxGeometry x="1125" y="780" width="80" height="50" as="geometry" />
        </mxCell>
        <mxCell id="0vOsTDvxW1U39WzQ74CE-91" value="" style="endArrow=none;html=1;rounded=0;shape=link;exitX=0.5;exitY=0;exitDx=0;exitDy=0;" parent="1" source="0vOsTDvxW1U39WzQ74CE-90" edge="1">
          <mxGeometry width="50" height="50" relative="1" as="geometry">
            <mxPoint x="1145" y="770" as="sourcePoint" />
            <mxPoint x="1175" y="720" as="targetPoint" />
          </mxGeometry>
        </mxCell>
        <mxCell id="0vOsTDvxW1U39WzQ74CE-92" value="" style="endArrow=none;html=1;rounded=0;entryX=0.375;entryY=0.8;entryDx=0;entryDy=0;exitX=0.75;exitY=0;exitDx=0;exitDy=0;entryPerimeter=0;" parent="1" source="0vOsTDvxW1U39WzQ74CE-22" target="0vOsTDvxW1U39WzQ74CE-90" edge="1">
          <mxGeometry width="50" height="50" relative="1" as="geometry">
            <mxPoint x="1115" y="880" as="sourcePoint" />
            <mxPoint x="1155" y="820" as="targetPoint" />
          </mxGeometry>
        </mxCell>
        <mxCell id="0vOsTDvxW1U39WzQ74CE-93" value="N" style="text;html=1;align=center;verticalAlign=middle;resizable=0;points=[];autosize=1;strokeColor=none;fillColor=none;" parent="1" vertex="1">
          <mxGeometry x="1170" y="738" width="30" height="30" as="geometry" />
        </mxCell>
        <mxCell id="0vOsTDvxW1U39WzQ74CE-94" value="M" style="text;html=1;align=center;verticalAlign=middle;resizable=0;points=[];autosize=1;strokeColor=none;fillColor=none;" parent="1" vertex="1">
          <mxGeometry x="1140" y="838" width="30" height="30" as="geometry" />
        </mxCell>
        <mxCell id="0vOsTDvxW1U39WzQ74CE-95" value="Sản xuất" style="rhombus;whiteSpace=wrap;html=1;" parent="1" vertex="1">
          <mxGeometry x="955" y="788" width="70" height="50" as="geometry" />
        </mxCell>
        <mxCell id="0vOsTDvxW1U39WzQ74CE-96" value="" style="endArrow=none;html=1;rounded=0;shape=link;exitX=1;exitY=0;exitDx=0;exitDy=0;" parent="1" source="0vOsTDvxW1U39WzQ74CE-95" edge="1">
          <mxGeometry width="50" height="50" relative="1" as="geometry">
            <mxPoint x="995" y="868" as="sourcePoint" />
            <mxPoint x="1145" y="718" as="targetPoint" />
          </mxGeometry>
        </mxCell>
        <mxCell id="0vOsTDvxW1U39WzQ74CE-97" value="" style="endArrow=none;html=1;rounded=0;exitX=0.75;exitY=0;exitDx=0;exitDy=0;" parent="1" source="0vOsTDvxW1U39WzQ74CE-29" edge="1">
          <mxGeometry width="50" height="50" relative="1" as="geometry">
            <mxPoint x="925" y="878" as="sourcePoint" />
            <mxPoint x="975" y="828" as="targetPoint" />
          </mxGeometry>
        </mxCell>
        <mxCell id="0vOsTDvxW1U39WzQ74CE-98" value="N" style="text;html=1;align=center;verticalAlign=middle;resizable=0;points=[];autosize=1;strokeColor=none;fillColor=none;" parent="1" vertex="1">
          <mxGeometry x="1040" y="728" width="30" height="30" as="geometry" />
        </mxCell>
        <mxCell id="0vOsTDvxW1U39WzQ74CE-99" value="1" style="text;html=1;align=center;verticalAlign=middle;resizable=0;points=[];autosize=1;strokeColor=none;fillColor=none;" parent="1" vertex="1">
          <mxGeometry x="880" y="848" width="30" height="30" as="geometry" />
        </mxCell>
        <mxCell id="0vOsTDvxW1U39WzQ74CE-100" value="Mượn" style="rhombus;whiteSpace=wrap;html=1;" parent="1" vertex="1">
          <mxGeometry x="510" y="735.5" width="85" height="70" as="geometry" />
        </mxCell>
        <mxCell id="0vOsTDvxW1U39WzQ74CE-103" value="" style="endArrow=none;html=1;rounded=0;shape=link;exitX=0.75;exitY=0;exitDx=0;exitDy=0;entryX=0.5;entryY=1;entryDx=0;entryDy=0;" parent="1" source="0vOsTDvxW1U39WzQ74CE-39" target="0vOsTDvxW1U39WzQ74CE-100" edge="1">
          <mxGeometry width="50" height="50" relative="1" as="geometry">
            <mxPoint x="745" y="860" as="sourcePoint" />
            <mxPoint x="805" y="810" as="targetPoint" />
          </mxGeometry>
        </mxCell>
        <mxCell id="0vOsTDvxW1U39WzQ74CE-108" value="Ngày mượn" style="ellipse;whiteSpace=wrap;html=1;direction=south;" parent="1" vertex="1">
          <mxGeometry x="410" y="718" width="60" height="50" as="geometry" />
        </mxCell>
        <mxCell id="0vOsTDvxW1U39WzQ74CE-109" value="Ngày trả" style="ellipse;whiteSpace=wrap;html=1;" parent="1" vertex="1">
          <mxGeometry x="403.75" y="805.5" width="72.5" height="40" as="geometry" />
        </mxCell>
        <mxCell id="0vOsTDvxW1U39WzQ74CE-110" value="" style="endArrow=none;html=1;rounded=0;entryX=0.5;entryY=0;entryDx=0;entryDy=0;exitX=0;exitY=1;exitDx=0;exitDy=0;" parent="1" source="0vOsTDvxW1U39WzQ74CE-100" target="0vOsTDvxW1U39WzQ74CE-109" edge="1">
          <mxGeometry width="50" height="50" relative="1" as="geometry">
            <mxPoint x="830" y="775" as="sourcePoint" />
            <mxPoint x="880" y="725" as="targetPoint" />
          </mxGeometry>
        </mxCell>
        <mxCell id="0vOsTDvxW1U39WzQ74CE-111" value="" style="endArrow=none;html=1;rounded=0;exitX=0.325;exitY=0.092;exitDx=0;exitDy=0;exitPerimeter=0;entryX=0;entryY=0;entryDx=0;entryDy=0;" parent="1" source="0vOsTDvxW1U39WzQ74CE-108" target="0vOsTDvxW1U39WzQ74CE-100" edge="1">
          <mxGeometry width="50" height="50" relative="1" as="geometry">
            <mxPoint x="745" y="830" as="sourcePoint" />
            <mxPoint x="795" y="780" as="targetPoint" />
          </mxGeometry>
        </mxCell>
        <mxCell id="0vOsTDvxW1U39WzQ74CE-118" value="1" style="text;html=1;align=center;verticalAlign=middle;resizable=0;points=[];autosize=1;strokeColor=none;fillColor=none;" parent="1" vertex="1">
          <mxGeometry x="520" y="860" width="30" height="30" as="geometry" />
        </mxCell>
        <mxCell id="EWfTi6bPWBDIcgBMF3eE-1" value="" style="endArrow=none;html=1;rounded=0;entryX=0;entryY=1;entryDx=0;entryDy=0;" parent="1" target="0vOsTDvxW1U39WzQ74CE-55" edge="1">
          <mxGeometry width="50" height="50" relative="1" as="geometry">
            <mxPoint x="595" y="770" as="sourcePoint" />
            <mxPoint x="830" y="690" as="targetPoint" />
          </mxGeometry>
        </mxCell>
        <mxCell id="EWfTi6bPWBDIcgBMF3eE-2" value="M" style="text;html=1;align=center;verticalAlign=middle;resizable=0;points=[];autosize=1;strokeColor=none;fillColor=none;" parent="1" vertex="1">
          <mxGeometry x="755" y="718" width="30" height="30" as="geometry" />
        </mxCell>
      </root>
    </mxGraphModel>
  </diagram>
</mxfile>
